<svg viewBox="0 0 170 44.186" xmlns="http://www.w3.org/2000/svg"><path d="M15.036 28.706c.028 1.392-1.392 2.868-3.453 2.896-.417 0-1.42-.028-2.505-.445-1.142-.474-2.395-1.365-3.87-2.31-2.34-1.477-2.45-1.42-3.537-2.312-.584-.473-.86-.75-.86-1.17-.03-.612.555-.946 1.752-.946.78-.028 1.225.11 1.225.36.027.418-1.14.724-1.14 1.337 0 .195.11.39.555.723.835.725 1.336.67 2.283 1.336 2.06 1.392 3.926 2.617 5.93 2.59 2.2-.03 2.98-1.56 2.98-2.367-.028-1.003-1.45-4.706-3.926-12.03-1.227 1.728-3.51 3.008-5.263 3.036C2.672 19.462.027 16.9 0 14.116c-.056-2.338 1.7-8.24 2.422-8.24.112 0 .25.167.25.334 0 .584-1.168 3.675-1.14 5.874.056 2.367 1.53 3.676 3.702 3.647 1.726-.027 3.48-.918 4.483-1.586-1.254-3.76-2.422-7.406-2.45-8.91C7.238 3.205 9.216.558 10.773.53c1.17 0 1.866 1.476 1.893 3.73.056 2.255-.528 7.962-1.42 10.608 1.31 4.038 3.762 12.085 3.79 13.838zm-7.1-23.804c.028 1.086 1.533 4.928 2.757 8.353.864-1.56 1.03-3.592 1.14-5.875.058-.723.14-1.977.113-3.063-.028-1.948-.418-3.23-1.225-3.23-1.17.03-2.812 2.645-2.783 3.815zm66.068 21.466c0 .78-.39 1.336-.89 1.336-.95.027-2.674-1.81-3.983-3.842-.61.946-1.586 1.726-2.588 2.032-.14.223-.39.418-.864.445-.696.055-1.782-.446-2.283-.975-.167-.112-.333-.223-.5-.363-.697 1.31-2.395 2.256-4.345 2.312-1.113 0-2.115-.28-2.95-.835-.947.444-2.06.667-3.174.695-1.727.028-3.007-.445-3.926-1.363-.89 1.113-2.283 1.893-3.37 1.92-1.196.028-2.783-.89-3.73-2.59-.445 1.31-1.364 2.924-2.728 2.953-1.365.027-1.782-1.782-1.92-3.118-.28-2.033-.084-3.007-1.838-2.98-.168 0-.362.057-.557.14-.53.25-.975.39-1.67.612-1.337.444-2.312 2.31-2.34 4.09l.39 1.227c.696 2.2 1.254 4.148 1.782 5.79.808 2.368 1.448 3.9 1.448 4.874.027.835-.613 1.253-1.06 1.28-1.836.03-3.033-7.46-3.257-11.135-.443-1.754-.945-2.98-1.39-3.897-.223.195-.447.39-.697.528.028.112.056.195.056.28 0 .723-1.31 1.752-2.31 1.752-.697.028-1.477-.446-2.256-1.308-.306-.14-.612-.28-.89-.474-.808.92-1.894 1.615-2.813 1.644-1 .027-1.724-.808-2.17-1.504-1.615-.918-1.977-1.086-1.977-2.06-.028-.67.167-.112.25-1.42.138-2.17.167-2.2.528-2.2.725 0 .81.112.947.752.697 2.755.67 5.178 2.31 5.15.67 0 1.45-.445 2.062-1.003-.92-.834-1.532-1.893-1.532-2.95-.028-1.087.585-1.838 1.42-1.867 1.308-.027 2.2 1.837 2.2 2.868 0 .557-.224 1.17-.613 1.782.5.445 1.113.724 1.837.724 1.113-.028 2.31-.835 2.95-1.866-.64-1.002-1.14-1.476-1.14-2.338 0-.92.528-1.476 1.42-1.476 1.057-.028 1.726.75 1.753 2.005 0 .5-.083.974-.278 1.447.195.612.36 1.226.557 1.837.667-2.7 2.617-3.84 5.095-3.953 2.087-.083 2.227.67 2.505 2.506.333 2.115.667 3.508 1.392 3.508.668 0 1.643-1.225 2.033-2.478-.558-.807-.808-1.643-.835-2.366-.028-1.253.696-2.785 1.42-2.812.306 0 .25.25.306.696 0 .195.168.278.168.417 0 .14-.167.39-.167.613.028.918.084 1.782.39 2.95.808 1.31 2.09 2.368 3.035 2.34.835-.028 1.977-.864 2.59-1.81-.25-.39-.446-.835-.586-1.336-.307-.946-.334-1.727-.362-2.032 0-1.002.306-1.503.975-1.53.863 0 1.364.834 1.392 1.892 0 .808-.28 1.06-.28 1.615-.026.61.28.862.113 1.39.75.92 1.81 1.337 3.396 1.282.835-.028 1.615-.14 2.312-.39-.864-.92-1.392-2.2-1.42-3.73-.027-1.977.864-3.175 2.367-3.202 1.615-.028 2.84 1.252 2.868 3.23.03 1.698-.806 3.033-2.06 3.897.613.306 1.336.445 2.116.445 1.837-.056 3.034-.975 3.508-2.032-1.28-1.17-2.228-2.73-2.256-4.038-.027-.585.418-.862.724-.862.28 0 .725.055 1.17.584.612.696 1.447 2.784 1.475 3.536v.028c.753.612 1.644.918 2.7.89 1.366-.027 2.145-.557 2.507-1.78-.64-1.17-1.086-2.312-1.114-3.092 0-.612.28-1.03.668-1.03.89-.027 1.782 1.838 1.81 3.175v.028c.668 1.31 1.225 1.727 3.117 3.313.975.81 1.03.922 1.06 1.228zm-52.62-3.898c0 .362.25 1.086.723 1.727.28-.417.446-.864.446-1.226 0-.416-.25-1.112-.696-1.085-.28 0-.474.25-.474.585zm34.3 2.923c1.31-.75 2.116-1.95 2.09-3.535-.03-1.476-.78-2.395-1.867-2.395-1.03.028-1.587.92-1.56 2.562.028 1.475.53 2.617 1.337 3.368zM170 27.175c0 .195-.14.334-.5.334-.892.026-1.783-.752-2.758-2.117-.64 1.17-1.948 1.977-3.34 2.005-1.06.027-2.145-.39-3.09-1.085-.168 1.252-1.365 2.032-3.007 2.06-1.895.028-4.038-.89-5.597-2.172-.528.948-1.475 1.505-2.645 1.532-.863.028-1.782-.278-2.59-.807-.863.78-1.95 1.252-3.145 1.252-1.837.057-3.73-.974-5.178-2.755-.25.11-.502.25-.725.417-.36.556-.864 1.03-1.42 1.28-.64.668-1.17 1.253-1.67 1.253-.864.028-1.086-1.086-1.45-1.92-.666-.53-1.28-1.225-1.78-2.06-1.364 2.588-2.95 4.87-5.04 4.9-1.95.055-3.815-1.894-3.87-3.955 0-.417.055-.835.194-1.28-1.95 1.113-3.9 1.92-5.848 2.477 6.21 8.324 8.185 11.943 8.27 15.313 0 1.28-.25 2.31-1.504 2.338-2.005.027-5.345-2.646-6.877-4.705-2.588-3.423-3.145-7.544-2.42-11.776-1.282.863-2.674 1.448-3.844 1.476-1.837.027-3.313-1.755-3.34-3.843 0-.667.083-1.308.306-2.032-.39.084-.725.14-1.086.14h-.362c.056.25.083.5.083.75.057 2.507-2.7 4.51-6.042 4.566-2.533.057-4.37-1.085-5.095-2.867h-.25c.084.445.14.946.195 1.42.11.975.613 3.675.613 4.036.027 1.002-1.03 1.92-2.145 1.95-.417 0-1.726-.112-2.868-.697-1.837 1.252-3.814 2.088-5.373 2.116-2.728.054-5.345-1.477-5.4-4.317-.057-2.45 1.697-3.76 4.34-4.51C73.866 14.618 70.58 9.133 70.497 5.347c-.028-3.09 2.673-5.29 6.43-5.345 5.653-.11 20.27 4.455 20.324 8.13.03 1.53-2.422 4.342-5.122 7.46.14.78.083.75.863 4.176.112.53.78 2.646 1.254 5.208h.138c-.027-.14-.055-.25-.055-.39-.027-.195-.056-.363-.056-.557-.026-2.73 1.978-3.732 5.486-3.788 1.364-.027 1.977.417 2.004 1.53.028 1.838-2.728 3.536-5.54 4.01.668 1.113 2.004 1.782 3.73 1.753 2.645-.056 4.956-1.698 4.927-3.536 0-.223-.027-.475-.11-.725-.92-.278-1.56-.863-1.56-1.53 0-.363.222-.64.583-.64.363 0 .725.222 1.03.556 1.086.78 1.56.836 2.563.92.92.082 1.81.25 1.837 1.92 0 .67-.11 1.42-.11 2.033 0 .78.25 1.365 1.335 1.336 1.28-.028 2.895-.947 4.204-2.117-.67-1.197-1.06-2.283-1.087-3.48-.028-1.335.446-1.752 1.503-1.78 1.67-.028 2.952.612 2.952 1.836.027.75-.334 1.585-.946 2.45 4.9-.78 6.57-3.203 7.544-3.23.334 0 .53.307.53.668.026.807-.976 1.197-.947 2.562.026 1.42 1.14 2.7 2.393 2.673 1.28-.028 2.84-1.392 3.37-5.735.054-.474.222-.64.528-.67.502 0 .362.42.613 1.06.613 1.392 3.397 3.62 4.4 3.59.583 0 1.14-.695 1.14-1.39-.027-.53-.417-.668-.417-1.087 0-.416.39-.89.78-.917.278 0 .39.278.78.75 1.586 1.95 4.092 3.955 5.763 3.926.666 0 1.307-.335 1.808-.892-1.224-1.168-2.115-2.784-2.144-4.315 0-.362.028-.696.11-1.002-.026-.167-.055-.333 0-.528.112-.474.614-.975.865-1.058.11-.028.388-.028.666 0 .167-.056.36-.084.557-.084 1.615-.028 2.812 1.42 2.868 3.563.03 1.252-.36 2.422-1 3.37.5.25 1.056.417 1.53.417.36 0 .696-.112.946-.307.14-.667.056-1.614-.056-2.366-.195-.418-.306-.835-.306-1.253-.028-.89.445-1.336.862-1.336.92 0 1.81 1.81 1.837 3.313 0 .17 0 .307-.027.447 1.754 1.726 3.453 2.533 5.262 2.506 1.448-.028 2.116-.613 2.116-1.837v-.056c-.975-.975-1.642-2.2-1.67-3.397 0-.418.083-.584.28-.584.722 0 1.92 2.2 2.226 3.786.835.667 1.865 1.03 3.006 1.002 2.06-.028 3.146-1.28 3.12-3.536-.028-.947-.224-.78-.224-1.17 0-.362.195-.555.725-.555.195 0 .278 0 1.14 1.864.25.558.502.642.697 1.003.835 1.7.75 1.95.974 2.48.115.276.282.527.282.722zm-85.138-1.53c2.004-.418 4.4-.586 6.85-.642-1.06-2.143-2.09-4.12-2.116-5.15-.084-4.092.222-4.565.195-5.93-.027-1.67-.473-3.285-.5-4.983-.028-1.644.333-2.646 1.002-2.646.557-.027.668.445.696 1.14 0 .335-.028.78 0 1.227.027 1.643.39 3.09.835 5.43 2.31-2.06 4.37-4.733 4.343-6.014C96.11 4.763 82.19.976 76.732 1.06c-3.09.057-5.124 1.393-5.095 3.592.027 1.197.668 2.923 1.364 4.26 1.672 3.368 7.352 11.19 11.862 16.732zm3.785 5.734c-1.56-1.727-3.006-3.34-4.342-4.873-2.255.64-3.676 1.753-3.647 3.814.028 1.67 1.252 2.534 3.062 2.506 1.364-.027 3.258-.556 4.927-1.447zm3.564-5.318l-.166-.39c-2.45.083-4.76.195-6.653.585 1.644 2.004 3.12 3.675 4.148 4.593 1.587-1.03 2.785-2.394 2.756-3.925 0-.196-.026-.502-.083-.863zm1.588 4.76c0-.39-.083-.864-.222-1.336-.696.863-1.532 1.67-2.422 2.394.53.195 1.086.334 1.503.306.752 0 1.14-.75 1.14-1.364zm1.894-6.932c0 .36.055.723.167 1.03 2.978-.307 5.344-1.755 5.317-3.286-.028-.528-.39-.835-.975-.835-2.422.054-4.538.974-4.51 3.09zm19.238-1.726c.028.725.334 1.587.864 2.45.75-.918 1.225-1.837 1.225-2.56 0-.642-.614-.836-1.2-.81-.695 0-.89.28-.89.92zm5.596 12.277c-2.06-3.284-3.814-5.54-5.067-7.405-.362 2.032-.418 4.622-.307 6.236.222 2.647 4.984 8.883 7.406 8.855.583-.027.862-.39.833-1.197-.027-1.364-.834-3.23-2.867-6.487zm25.503-9.297c.36-.75.584-1.67.584-2.645-.028-1.45-.558-2.422-1.31-2.422-.64.027-1.14.78-1.14 1.698.028 1.114.806 2.422 1.865 3.37z"></path></svg>