<svg viewBox="0 0 288.47 92.86" xmlns="http://www.w3.org/2000/svg"><path d="m79.45 76.43h205.11" fill="none" stroke="#e63027" stroke-width=".42"/><path d="m33.71 80.92c.92-.54 3-1.63 3.21-1.78.4-.24.63-.21.64-.08.05.46 0 1.44.63 1.64.17.06.62-.15.7 0a2.74 2.74 0 0 0 .29.36c.06.11.36 0 .43.1s0 .35.08.46.44-.11.59-.08a.43.43 0 0 1 .28.55c-.07.31.12.55.64.12.27-.22.29-.11.52-.22a.46.46 0 0 1 .47 0 1.45 1.45 0 0 0 .4.32c.21.08.44 0 .57.05s.21.38.38.4.35-.31.46-.21c.31.3-.26.8.13.9.21.06.3-.1.47-.13s.27-.23.42-.23.25.18.44.08l.42-.23c.2-.13.42-.07.54-.16s0-.45.46-.36-.07.48.13.65.51 0 .63 0a1.07 1.07 0 0 0 .54-.57 13.68 13.68 0 0 1 .61-1.28c.15-.22.52-1.07.71-1.37s1-1.54 1.06-1.73a6.66 6.66 0 0 1 .42-.62c.08-.14.24-.63.43-1s.74-1.18.79-1.33.46-1.1.61-1.39.66-1 .78-1.29.47-1 .47-1l.36-.61.3-.64c.17-.36.68-1.15.83-1.42s.56-.83.56-.83l.32-.71.25-.54a6.5 6.5 0 0 1 .29-.8c.1-.17.44-.59.54-.81s.39-1.2.54-1.49.85-1.57.93-1.82.8-1.56.88-1.83a4.41 4.41 0 0 1 .19-.81c.1-.17.39-.61.44-.73s.54-1.3.62-1.47.12-.49.31-.49.34.21.47.39.44.17.61.34a8.33 8.33 0 0 1 .76.88c0 .1.34.13.42.22s.12.35.22.4a3.82 3.82 0 0 1 .68.53 2.78 2.78 0 0 0 .34.54 4.06 4.06 0 0 1 .76.59c.08.15.88 1.13 1 1.3s.17.46.25.59.36.29.39.41a3.45 3.45 0 0 0 .12.69c.07.12.42.27.46.39a4.53 4.53 0 0 0 .27.66 1.15 1.15 0 0 1 .27.27c.05.1.1.63.17.73a6 6 0 0 1 .4.69c.07.17.31.49.36.61s.08.61.13.78.27.54.29.64.07.39.07.39l.2.47a2.57 2.57 0 0 1 .22.63 3 3 0 0 0 .07.49 5.6 5.6 0 0 1 .22.54 4.44 4.44 0 0 0 .27.66 2.44 2.44 0 0 0 0 .61.95.95 0 0 1 .2 1l.12.2s-.07.27 0 .36-.05.32 0 .4a4 4 0 0 1 .27.59c-.15.17-10.36 4.89-14.73 6.93-6.31 2.95-19.42 9.52-20.82 10.33s-2.27 1.27-2.61 1.1a6.91 6.91 0 0 1 -2.9-3.92 11.16 11.16 0 0 1 -.67-4.55 1.64 1.64 0 0 1 1-1.69c.3-.22 2.1-1.22 3.01-1.76zm-18.15-36.16c.05.11.26.09.42.13s.25.18.35.19.24 0 .29 0 .13.28.23.43.15.39.3.44.34 0 .39.17-.06.37.05.56c.28.49 0 1.84.28 1.94a1.86 1.86 0 0 0 1.23-.37 5.47 5.47 0 0 1 .84-.73 9.24 9.24 0 0 1 1.47-.64c.35-.07.53-.65.88-.69s.22-.3.46-.4.7-.35.85-.2a1.41 1.41 0 0 0 .43.34c.27.1.56 0 .61.26s.73 0 .73 0a10.64 10.64 0 0 1 1.16-.67c.34-.15 1.25-.63 1.25-.63l1-.51c11-5.3 19.72-8.22 27.7-11.31 12.44-4.81 33.95-10.33 38-11.35.43-.11 1.38-.26 1.5-.33a.64.64 0 0 0 .41-.51c.1-.39-.2-.93-.2-1.12s.44-1 .49-1.32a.34.34 0 0 0 -.29-.4 2.35 2.35 0 0 0 0-.73c-.09-.31-.64-.59-.73-.83s0-1-.1-1.23a1.25 1.25 0 0 0 -.39-.44.52.52 0 0 0 0-.34.29.29 0 0 0 -.3-.19 2.5 2.5 0 0 0 .05-.64c0-.17-.29-.29-.29-.29s-.3-.2-.3-.4a.5.5 0 0 0 -.19-.44 3.22 3.22 0 0 0 -.74-.14 1.62 1.62 0 0 0 -.73-.1 5.9 5.9 0 0 1 -1 .39 6 6 0 0 1 -1.27.05c-.29.05-.64.25-1 .34-3.33.87-18.6 5.31-29.86 9.55a315.11 315.11 0 0 0 -30.55 13.56c-5.75 3-8.83 4.72-10.1 5.51a7.09 7.09 0 0 0 -1.49 1.07c-.17.3-.37.76-.75.81s-.4.32-.54.35a1.51 1.51 0 0 0 -.52.37.36.36 0 0 0 -.03.49zm47.54-6.83c-.51-.3-.34-.59.26-.84 3.64-1.56 12.84-4.84 18.11-6.51 4.5-1.43 16.94-5.48 20.4-6.48.83-.24 1.17-.23 1.54.16a17.89 17.89 0 0 1 2.71 4 21.85 21.85 0 0 1 1.75 5.16c.2 1-.27 1.2-.83 1.45-3.85 1.73-13.34 5.89-17.29 7.75s-10.92 5.22-13.31 6.42c-1 .51-.84.72-1.53-.07a9.33 9.33 0 0 1 -.64-.93c-.09-.14-1.42-1.32-1.56-1.46s-.88-1-1.08-1.18-.83-1-1-1.13a2.83 2.83 0 0 1 -.67-.4 5.7 5.7 0 0 0 -.55-.55 4.9 4.9 0 0 1 -.48-.44l-.45-.42-.39-.44a2.31 2.31 0 0 0 -.59-.54 2.13 2.13 0 0 1 -.69-.63 7.27 7.27 0 0 0 -1.27-1.37c-.39-.25-1.33-.86-1.53-1s-.49-.3-.91-.55zm18.64 20.06a2.1 2.1 0 0 0 -.22-.64c-.15-.09-.39-.63-.54-.78a2.77 2.77 0 0 1 -.34-.68s-.15-.59-.3-.69-.5-.94-.65-1a5.87 5.87 0 0 1 -.62-.72 2.67 2.67 0 0 0 -.48-.64 8.41 8.41 0 0 0 -.74-.68c-.2-.1-.36-.4-.74-.78s.11-.43.54-.59c1.61-.62 11.19-3.62 19.53-5.82s20.34-4.68 22.13-5a1.07 1.07 0 0 1 1.42.58 19.17 19.17 0 0 1 1.71 5 13.15 13.15 0 0 1 -.19 5.48c-.18.49-.86.53-2.48 1-1 .26-5.12 1.33-6.82 1.82-2 .57-7.15 2.07-9.06 2.72l-3.67 1.24zm-24.59-38.46c-.47 0-.88 0-1-.13s0-.21-.11-.31a.42.42 0 0 0 -.42 0c-.07.06-.06.06-.22.11s-.79-.16-1-.09a1.65 1.65 0 0 1 -.85 0c-.16-.08-.18-.51-.45-.62a2.1 2.1 0 0 1 -.76-.57c-.14-.26-.53-.64-.61-.83s-.21-.47-.27-.62a2.76 2.76 0 0 0 -.29-.57c-.09-.11-.22-.21-.31-.31s-.18-.46-.28-.61-.16-.23-.22-.35-.05-.25-.11-.39-.22-.33-.26-.45a12 12 0 0 1 -.07-1.66 11.06 11.06 0 0 1 .07-1.52c.07-.26.2-.51.26-.79s.4-1.17.5-1.6a13.06 13.06 0 0 1 .42-1.48 11.8 11.8 0 0 1 .55-1.25c.15-.24.7-1.07.92-1.34a18.45 18.45 0 0 1 1.46-1.47l1-.72c.1-.07.81-.57 1-.71a1 1 0 0 1 .44-.11l.24-.24a1.69 1.69 0 0 1 .26-.24 9.77 9.77 0 0 0 1.18-.29c.16 0 .27-.26.42-.3s.68-.11.75 0a.79.79 0 0 0 .46.22c.29.05.55 0 .66 0s.31.24.42.28a12.39 12.39 0 0 1 1.64 1.58 2.84 2.84 0 0 1 .11.37 1.55 1.55 0 0 1 .36.58c.07.27.34.36.37.74 0 .23.45.42.57.9 0 .11.09.58.12.65s.14.1.19.27a1.46 1.46 0 0 1 .07.6 9.18 9.18 0 0 1 .32 1.41 6.66 6.66 0 0 1 -.24 1.31c-.11.35 0 1-.11 1.28s-.28.94-.31 1.14a17.06 17.06 0 0 1 -.7 1.74c-.09.15-.41.78-.56 1s-1.28 1.76-1.48 2-.71.58-.81.73-.24.45-.38.68-.53.09-.68.35-.59.43-.66.64a1.89 1.89 0 0 1 -.48.68 2.41 2.41 0 0 1 -1.12.31zm-32.97 48.36s-4.83 1.63-6.75 2.31-3.83 1.36-5.18 1.91c-1.63.67-4.52 1.85-5.21 2.09-1.08.37-1.54.15-1.83-.49a18.65 18.65 0 0 1 -1.38-3.53 20.42 20.42 0 0 1 -.56-3.35 2.15 2.15 0 0 1 1-1.67c.59-.32 2-1.18 3.12-1.83 2.15-1.23 9.57-5.19 14-7.47 4.68-2.42 12.06-6 16-7.95s10.48-5.05 11.26-5.39a8.12 8.12 0 0 1 2-.73c.39 0 .24.19.24.34s-.13.21-.18.5a5.64 5.64 0 0 1 -.11.92c-.1.29-.35.57-.4.77a3.72 3.72 0 0 1 -.28 1.14 9.43 9.43 0 0 0 -1.05 2.24 10.07 10.07 0 0 1 -.62 1.92 7.41 7.41 0 0 0 -.66 1.46 13.21 13.21 0 0 1 -.47 1.28c-.09.29-.68 1.38-.78 1.58s-.49 1.51-.59 1.7a9.08 9.08 0 0 1 -.49.78l-.19.84a5.09 5.09 0 0 0 -.54.93 8.06 8.06 0 0 1 -.59 1.76 23.61 23.61 0 0 0 -1.32 3.13c-.19.74-.54 1.81-.64 2.06s-.63 1.12-.73 1.42-.54 1.76-.68 2a5.65 5.65 0 0 0 -.54 1.42 5.64 5.64 0 0 1 -.54 1.47c-.25.54-.54 1.47-.69 1.81s-.34.58-.39.78-.1.74-.15.89-.14.39-.14.39c-.25.12-13.42 5.78-15.28 6.66l-16 7.6c-.83.39-1.94 1.24-2.74.7a10 10 0 0 1 -2.74-3.56 12.86 12.86 0 0 1 -1.28-4.3c-.11-1.69.59-2 3.07-3.43 1.21-.71 10.82-5.77 13.91-7.37z" fill="#e63027"/><path d="m163.04 72.71c2.4-3.45 4.67-7 7-10.6h3.34c.21 3.48.62 7.08 1 10.6h-3l-.17-3.06h-3.26l-1.83 3.06z"/><path d="m171.22 67.42-.17-3.03h-.03l-1.87 3.03z" fill="#fff"/><path d="m127.62 72.77c-.82.08-1.94.24-2.45.24-3.14 0-4.78-2-3.88-5.5a6.82 6.82 0 0 1 6.71-5.48 10.69 10.69 0 0 1 2.27.29l-.42 2.46a5.49 5.49 0 0 0 -2-.43 4 4 0 0 0 -3.78 3.18c-.43 1.64 0 3.16 1.69 3.16a9.77 9.77 0 0 0 2.73-.43zm-23.42-10.6h5c1.3 0 3.71.81 2.56 5.29-.79 3.08-2.83 5.3-5.88 5.3h-4.41z"/><path d="m104.72 70.46h1.21c1.53 0 2.64-1.48 3-3 .51-2 .19-3-1.3-3h-1.35z" fill="#fff"/><path d="m100.67 66.33-.59 2.27h-3.7l-.49 1.92h4.4l-.58 2.27h-7.19l2.73-10.6h7.18l-.58 2.28h-4.41l-.47 1.86zm19.12 0-.58 2.27h-3.7l-.5 1.92h4.41l-.59 2.27h-7.19l2.73-10.6h7.19l-.59 2.28h-4.4l-.48 1.86zm141.5 0-.58 2.27h-3.7l-.5 1.92h4.41l-.59 2.27h-7.19l2.73-10.6h7.19l-.59 2.28h-4.4l-.48 1.86zm18.25 0-.58 2.27h-3.7l-.5 1.92h4.41l-.59 2.27h-7.19l2.73-10.6h7.19l-.59 2.28h-4.4l-.48 1.86zm-73.15-.08-.59 2.28h-3.36l-1.09 4.19h-2.78l2.73-10.6h6.8l-.58 2.28h-4.02l-.48 1.85zm-74.51-4.05h2.79l-2.73 10.6h-2.79zm119.25 0h2.79l-2.73 10.6h-2.79zm-164.38 0-.2 6.66h.03l3.3-6.66h3.65l-2.73 10.6h-2.31l1.96-7.59h-.03l-3.78 7.59h-2.38l.18-7.58h-.03l-1.95 7.58h-2.12l2.72-10.6zm49.78-.13h3.29l1.62 6.89h.03l1.77-6.89h2.44l-2.73 10.6h-3.25l-1.69-6.77h-.02l-1.75 6.77h-2.44zm41.56 0h3.29l1.62 6.89h.03l1.77-6.89h2.44l-2.73 10.6h-3.24l-1.7-6.77h-.02l-1.75 6.77h-2.44zm52.63 0h3.29l1.62 6.89h.02l1.78-6.89h2.44l-2.73 10.6h-3.25l-1.69-6.77h-.03l-1.74 6.77h-2.44zm-13.62 5.29a6.81 6.81 0 0 1 6.7-5.48c3.15 0 4.79 2 3.88 5.48a6.8 6.8 0 0 1 -6.7 5.5c-3.15 0-4.79-1.97-3.88-5.5z"/><path d="m219.88 67.38c-.42 1.64 0 3.16 1.69 3.16s2.9-1.52 3.32-3.16 0-3.18-1.68-3.18-2.93 1.54-3.33 3.18z" fill="#fff"/><path d="m209.59 62.17h4.69c2.34 0 3 1.13 2.41 3.23a4 4 0 0 1 -2.63 2.68c.24 1.59.45 3.26.73 4.69h-3c-.1-2-.19-4-.44-5.94a4.2 4.2 0 0 0 .67.08 1.89 1.89 0 0 0 2-1.39c.29-1.12-.57-1.12-1-1.12h-1.36l-2.16 8.37h-2.67zm55.07 0h4.72c2.33 0 2.94 1.13 2.4 3.23a4 4 0 0 1 -2.62 2.68c.24 1.59.44 3.26.73 4.69h-3c-.1-2-.19-4-.44-5.94a4.2 4.2 0 0 0 .67.08 1.89 1.89 0 0 0 2-1.39c.29-1.12-.57-1.12-1-1.12h-1.36l-2.16 8.37h-2.66zm-119.38 7.81a3.85 3.85 0 0 0 2.12.71c.45 0 1.26-.08 1.45-.83.35-1.35-2.74-2.43-2.05-5.13a3.83 3.83 0 0 1 4-2.75 9.22 9.22 0 0 1 2.27.31l-.34 2.51a3.37 3.37 0 0 0 -1.81-.54c-.43 0-1.22.2-1.37.76-.4 1.56 2.78 2.29 2.07 5.05a3.94 3.94 0 0 1 -4.11 2.89 11.21 11.21 0 0 1 -2.56-.36zm11.75 0a3.82 3.82 0 0 0 2.12.71c.45 0 1.25-.08 1.45-.83.34-1.35-2.75-2.43-2.05-5.13a3.82 3.82 0 0 1 4-2.75 9.22 9.22 0 0 1 2.27.31l-.35 2.51a3.34 3.34 0 0 0 -1.81-.54c-.42 0-1.22.2-1.36.76-.4 1.56 2.78 2.29 2.07 5.05a4 4 0 0 1 -4.12 2.89 11.21 11.21 0 0 1 -2.55-.36zm29.87 0a3.87 3.87 0 0 0 2.12.71c.46 0 1.26-.08 1.45-.83.35-1.35-2.74-2.43-2.05-5.13a3.83 3.83 0 0 1 4-2.75 9.15 9.15 0 0 1 2.27.31l-.34 2.51a3.37 3.37 0 0 0 -1.81-.54c-.43 0-1.22.2-1.37.76-.4 1.56 2.78 2.29 2.07 5.05a3.94 3.94 0 0 1 -4.11 2.89 11.21 11.21 0 0 1 -2.56-.36zm93.82 0a3.85 3.85 0 0 0 2.12.71c.45 0 1.26-.08 1.45-.83.35-1.35-2.74-2.43-2.05-5.13a3.83 3.83 0 0 1 4-2.75 9.22 9.22 0 0 1 2.27.31l-.34 2.51a3.37 3.37 0 0 0 -1.81-.54c-.43 0-1.22.2-1.37.76-.4 1.56 2.78 2.29 2.07 5.05a3.94 3.94 0 0 1 -4.11 2.89 11.21 11.21 0 0 1 -2.56-.36zm-39.36-7.78h8.29l-.59 2.27h-2.74l-2.15 8.33h-2.78l2.14-8.33h-2.76zm-80.65 28.51c2.4-3.45 4.67-7 7-10.6h3.34c.21 3.48.62 7.08 1 10.6h-3l-.17-3.06h-3.26l-1.83 3.06z"/><path d="m168.89 85.42-.17-3.03h-.03l-1.87 3.03z" fill="#fff"/><path d="m136.84 84.27-.58 2.27h-3.7l-.5 1.92h4.41l-.59 2.27h-7.19l2.73-10.59h7.19l-.59 2.27h-4.4l-.48 1.86zm113.12 0-.59 2.27h-3.7l-.49 1.92h4.4l-.58 2.27h-7.19l2.73-10.59h7.18l-.58 2.27h-4.4l-.48 1.86zm-49.92.6-1.54 6a28.21 28.21 0 0 1 -4.33.41c-2.77 0-4.42-2-3.51-5.49a6.83 6.83 0 0 1 6.71-5.49 12.48 12.48 0 0 1 3.22.42l-.46 2.49a6.51 6.51 0 0 0 -2.66-.59 4.21 4.21 0 0 0 -4.1 3.48c-.51 2 .24 3 1.7 3a3 3 0 0 0 1.31-.29l.42-1.65h-1.15l.57-2.22zm-100.68-4.73h2.78l-2.72 10.6h-2.79zm5.72 0h3.15l-4.33 4.97 1.96 5.63h-3.31l-1.55-5.6zm-26.55-.02h2.79l-2.14 8.32h4.08l-.58 2.28h-6.87zm97.64 0h3.29l1.62 6.9h.03l1.77-6.9h2.44l-2.73 10.6h-3.25l-1.69-6.77h-.02l-1.75 6.77h-2.44zm49.19 0h3.29l1.62 6.9h.02l1.78-6.9h2.44l-2.73 10.6h-3.25l-1.69-6.77h-.03l-1.74 6.77h-2.44zm-103.39-.01h4.72c2.33 0 2.95 1.13 2.41 3.23a4 4 0 0 1 -2.63 2.68c.24 1.59.45 3.26.73 4.69h-3c-.09-2-.18-4-.43-5.95a3.22 3.22 0 0 0 .67.08 1.9 1.9 0 0 0 2-1.38c.29-1.13-.57-1.13-1-1.13h-1.37l-2.15 8.38h-2.64zm81.48.04h4.72c2.34 0 2.95 1.13 2.41 3.23a4 4 0 0 1 -2.63 2.68c.24 1.59.45 3.26.73 4.69h-3c-.09-2-.18-4-.43-5.94a4.2 4.2 0 0 0 .67.08 1.9 1.9 0 0 0 2-1.39c.29-1.12-.57-1.12-1-1.12h-1.37l-2.15 8.37h-2.67zm50.19 0h4.73c2.33 0 2.94 1.13 2.4 3.23a4 4 0 0 1 -2.63 2.68c.24 1.59.45 3.26.73 4.69h-3c-.1-2-.19-4-.44-5.94a4.2 4.2 0 0 0 .67.08 1.89 1.89 0 0 0 2-1.39c.29-1.12-.57-1.12-1-1.12h-1.36l-2.16 8.37h-2.66zm-19.13 7.79a3.8 3.8 0 0 0 2.12.72c.46 0 1.26-.08 1.45-.83.35-1.35-2.74-2.43-2.05-5.13a3.83 3.83 0 0 1 4-2.75 9.65 9.65 0 0 1 2.27.3l-.34 2.51a3.46 3.46 0 0 0 -1.81-.54c-.43 0-1.22.21-1.36.77-.41 1.55 2.78 2.28 2.06 5.05a3.93 3.93 0 0 1 -4.11 2.89 11.21 11.21 0 0 1 -2.56-.36zm-78.12-7.82h8.29l-.59 2.27h-2.75l-2.14 8.33h-2.78l2.14-8.33h-2.76zm-7.67.05-1.55 6c-.4 1.53-.27 2.43 1 2.43s1.85-.9 2.24-2.43l1.56-6h2.78l-1.85 7.18c-.66 2.56-2.73 3.6-5.33 3.6s-4.13-1-3.47-3.6l1.85-7.18zm-64.78 10.59c2.4-3.45 4.68-7 7-10.6h3.34c.2 3.48.61 7.08 1 10.6h-3l-.17-3.05h-3.27l-1.83 3.05z"/><path d="m92.13 85.48-.18-3.04h-.02l-1.87 3.04z" fill="#fff"/><path d="m92.1 78.6a1.26 1.26 0 0 1 -1.2 1 .86.86 0 0 1 -.88-1 1.26 1.26 0 0 1 1.21-1 .86.86 0 0 1 .87 1zm3.84 0a1.24 1.24 0 0 1 -1.19 1 .86.86 0 0 1 -.88-1 1.26 1.26 0 0 1 1.21-1 .86.86 0 0 1 .86 1zm113.8 12.16c2.4-3.45 4.67-7 7-10.6h3.34c.21 3.48.62 7.08 1 10.6h-3l-.17-3.05h-3.26l-1.83 3.05z"/><path d="m217.92 85.48-.17-3.04h-.03l-1.87 3.04z" fill="#fff"/><path d="m217.89 78.6a1.24 1.24 0 0 1 -1.19 1 .86.86 0 0 1 -.88-1 1.26 1.26 0 0 1 1.21-1 .86.86 0 0 1 .86 1zm3.85 0a1.25 1.25 0 0 1 -1.2 1 .85.85 0 0 1 -.87-1 1.25 1.25 0 0 1 1.2-1 .86.86 0 0 1 .87 1zm-115.1 12.16c2.4-3.45 4.68-7 7-10.6h3.34c.2 3.48.62 7.08 1 10.6h-3l-.17-3.05h-3.26l-1.84 3.05z"/><path d="m114.83 85.48-.17-3.04h-.03l-1.87 3.04z" fill="#fff"/></svg>