<svg xmlns="http://www.w3.org/2000/svg" fill="none" viewBox="8.9 9.08 82.3 43.61">
<g clip-path="url(#clip0_4944_9921)">
<path d="M76.2833 9.07715C76.4334 9.07703 76.5812 9.11376 76.7138 9.18413C76.8464 9.2545 76.9598 9.35635 77.0439 9.48077C77.1281 9.60519 77.1805 9.74837 77.1965 9.89777C77.2125 10.0472 77.1917 10.1982 77.1359 10.3377L60.5925 51.9357C60.505 52.1556 60.3538 52.3443 60.1582 52.4774C59.9626 52.6105 59.7318 52.6819 59.4953 52.6825H19.4325C19.2702 52.6835 19.1101 52.6444 18.9664 52.5686C18.8228 52.4928 18.7 52.3827 18.6091 52.2481C18.5181 52.1134 18.4618 51.9584 18.445 51.7967C18.4282 51.635 18.4515 51.4717 18.5129 51.3212L34.9931 9.9623C35.0969 9.7018 35.2762 9.47842 35.508 9.321C35.7399 9.16357 36.0135 9.07932 36.2936 9.07912L76.2833 9.07715Z" fill="#EC2326"/>
<path d="M40.5621 27.0783V34.3511C41.2745 36.5244 43.7827 38.6622 47.4139 38.6622C51.045 38.6622 53.2177 36.562 54.1531 34.4617L60.032 36.8603C58.2362 41.4718 53.3677 44.5836 47.4139 44.5836C40.862 44.5836 35.7331 40.8297 34.0853 36.0364V25.391C35.7331 20.5938 40.862 16.8438 47.4139 16.8438C53.3677 16.8438 58.2362 19.9556 60.032 24.5671L54.1531 26.9656C53.2177 24.8674 51.047 22.7671 47.4139 22.7671C43.7808 22.7671 41.2745 24.9049 40.5621 27.0783ZM91.1985 25.391V36.0424C89.5882 40.8771 84.3092 44.5896 77.643 44.5896C70.9333 44.5896 65.6997 40.8771 64.0144 36.0424V25.391C65.6997 20.5938 70.9392 16.8438 77.6489 16.8438C84.3092 16.8438 89.5882 20.5562 91.1985 25.391ZM84.7533 27.0783C83.9639 24.9049 81.2721 22.7671 77.6035 22.7671C73.9349 22.7671 71.2372 24.9049 70.4893 27.0783V34.3511C71.2372 36.5244 73.9329 38.6622 77.6035 38.6622C81.2741 38.6622 83.9639 36.5244 84.7533 34.3511V27.0783ZM25.4653 33.9006L31.3856 42.8608V43.9455H24.9048L19.026 34.9517H15.0199V43.9455H8.90222V17.4819H19.1069H19.1246C24.5832 17.4819 28.9089 20.5226 30.2272 24.4841V28.2776V29.2654C29.5089 31.0891 27.7505 32.8515 25.4653 33.9006ZM23.8175 24.8437C23.2945 23.757 21.9091 22.9687 20.1488 22.9687H15.0179V30.5438H20.1488C21.9091 30.5438 23.2945 29.7199 23.8175 28.6688V24.8437Z" fill="currentColor"/>
</g>
<defs>
<clipPath id="clip0_4944_9921">
<rect width="100" height="61.7647" fill="white"/>
</clipPath>
</defs>
</svg>