<svg fill="none" viewBox="0 0 80 80" xmlns="http://www.w3.org/2000/svg"><path d="m80 0h-80v80.135h80z" fill="#2699d6"/><path d="m65.134 48.114c0-1.76-1.32-3.204-2.958-3.204h-2.072c-1.636 0-2.958 1.444-2.958 3.204v25.072c0 1.76 1.322 3.204 2.958 3.204h2.072c1.637 0 2.958-1.444 2.958-3.204zm-15.991-16.454c-1.756 0-3.198 1.323-3.198 2.962v2.211c0 1.64 1.427 2.963 3.198 2.963h24.054c1.757 0 3.199-1.324 3.199-2.963v-2.21c0-1.64-1.427-2.964-3.199-2.964h-24.054zm-18.213 1.263c1.742-1.654 2.823-1.745 4.745-.632 1.742.993 4.91 3.715 5.75 6.618.767 2.617-.675 3.535-1.486 4.272-.825.752-3.333 2.12-4.864-.662-1.142-2.076-2.283-3.083-3.98-4.377-1.816-1.384-2.282-3.203-.165-5.219zm-7.252 42.309c-1.742 1.655-2.447 1.565-4.685.572-1.801-.797-5.27-3.715-6.11-6.618-.766-2.617.615-3.474 1.426-4.211.825-.752 3.333-2.136 4.835.677.9 1.7 2.747 3.369 4.339 4.376 1.922 1.204 2.312 3.174.195 5.204zm11.592-21.087c2.252 1.594 7.432 5.37 7.612 11.25.21 6.497-4.82 9.791-6.831 10.724-2.012.932-3.244.045-4.13-1.083-1.426-1.835-1.621-3.595-.24-4.753 1.262-1.053 3.259-1.805 3.274-3.82.015-2.873-1.922-4.437-4.895-6.287-2.418-1.49-8.093-5.385-9.28-6.227-2.252-1.594-8.498-5.58-8.498-11.25 0-5.88 4.22-9.385 6.231-10.318 2.012-.932 3.063-.376 4.294 1.098 1.607 1.94 1.682 3.309.24 4.407-1.276.963-2.792 2.271-2.792 3.91 0 2.03 1.426 3.37 4.37 5.265 2.402 1.549 9.459 6.241 10.645 7.084z" fill="#fff"/></svg>