<svg xmlns="http://www.w3.org/2000/svg" viewBox="0 0 985.693 340.6"><path d="M249.402 1685.11v-98.59c0-53.78 21.668-82.46 72.762-82.46 19.102 0 37.469 8.66 48.856 22.41 11.343 13.72 17.035 31.37 17.035 52.88 0 35.85-10.77 71.7-32.266 107.55-21.519 35.85-67.523 87.83-138.035 155.95C80.332 1976.66 11.621 2108.13 11.621 2237.2c0 94.38 31.652 170.87 95 229.44 63.324 58.53 140.406 87.83 231.231 87.83 88.402 0 162.214-27.2 221.363-81.57 59.172-54.38 88.734-127.57 88.734-219.57v-93.22H396.582v80.67c0 47.79-16.238 76.9-62.016 76.9-35.847 0-54.082-26.71-54.082-69.73 0-29.89 11.055-62.15 33.168-96.79 22.114-34.68 67.809-85.45 137.133-152.37 71.703-69.32 123.945-136.22 156.828-200.76 32.864-64.53 49.305-133.85 49.305-207.93 0-96.79-32.266-175.38-96.801-235.71-64.535-60.35-144.015-90.52-238.398-90.52-90.824 0-166.699 28.07-227.649 84.25-60.953 56.15-91.418 131.44-91.418 225.84v111.15h246.75M1250.97 2267.66h-149.23v-985.87H832.879v985.87H683.672v268.89h567.298v-268.89M1557.47 2231.81v-645.29c0-47.81 25.6-71.7 67.45-71.7 41.81 0 64.5 22.12 64.5 69.93v645.3c0 47.78-22.69 73.46-64.5 73.46-41.85 0-67.45-23.91-67.45-71.7zm-264.16-648.88v645.3c0 96.8 32.26 175.36 96.78 235.72 64.53 60.32 144.01 90.52 238.42 90.52 94.38 0 172.65-28.99 234.81-86.94 62.12-57.98 93.2-135.33 93.2-232.12V1590.1c0-96.79-32.25-175.38-96.78-235.71-64.54-60.35-144.02-90.52-238.42-90.52-94.38 0-172.68 28.96-234.79 86.93-62.17 57.95-93.22 135.33-93.22 232.13M2689.65 2061.53h-254.07v179.25c0 41.82-23.76 62.73-59.61 62.73-35.85 0-57.82-24.94-57.82-66.76v-663.22c0-41.85 21.97-58.71 57.82-58.71s59.61 20.89 59.61 62.74v197.17h254.07v-202.55c0-92.04-30.78-166.42-92.3-223.17-61.57-56.77-136.56-85.14-224.97-85.14-90.82 0-166.69 28.07-227.65 84.25-60.95 56.15-91.41 131.44-91.41 225.84v663.24c0 94.38 31.65 170.87 95 229.44 63.32 58.53 140.41 87.83 231.23 87.83 88.43 0 162.24-27.2 221.36-81.57 59.17-54.38 88.74-127.57 88.74-219.57v-191.8M3222.58 1281.79l-161.32 580.78v-580.78h-268.88v1254.76h268.88v-541.34l143.4 541.34h295.77l-197.19-591.53 215.1-663.23h-295.76M3973.77 1281.79v510.87h-125.61v-510.87h-268.89v1254.76h268.89v-475.02h125.61v475.02h268.88V1281.79h-268.88M5619.1 1281.79h-492.93v1254.76h268.87v-985.88h224.06v-268.88M6108.28 1282.15l-165.02 726.56v-726.92h-245.57v1254.76h298.91l200.34-544.65 200.33 544.65h280.99V1281.79h-245.57v726.92l-164.34-726.56h-160.07M4613.08 2231.81v-645.29c0-47.81 25.6-71.7 67.45-71.7 41.81 0 64.5 22.12 64.5 69.93v645.3c0 47.78-22.69 73.46-64.5 73.46-41.85 0-67.45-23.91-67.45-71.7zm-264.16-648.88v645.3c0 96.8 32.26 175.36 96.77 235.72 64.54 60.32 144.02 90.52 238.43 90.52 94.38 0 172.65-28.99 234.81-86.94 62.12-57.98 93.2-135.33 93.2-232.12V1590.1c0-96.79-32.25-175.38-96.78-235.71-64.54-60.35-144.02-90.52-238.42-90.52-94.38 0-172.68 28.96-234.79 86.93-62.17 57.95-93.22 135.33-93.22 232.13M6985.2 1685.16v-98.6c0-53.77 21.67-82.45 72.76-82.45 19.1 0 37.47 8.65 48.86 22.4 11.34 13.73 17.03 31.38 17.03 52.89 0 35.85-10.77 71.7-32.26 107.55-21.52 35.85-67.53 87.83-138.04 155.95-137.42 133.81-206.13 265.28-206.13 394.35 0 94.38 31.65 170.87 95 229.44 63.32 58.53 140.41 87.83 231.23 87.83 88.4 0 162.21-27.2 221.36-81.57 59.17-54.38 88.74-127.57 88.74-219.57v-93.22h-251.37v80.67c0 47.78-16.24 76.9-62.02 76.9-35.85 0-54.08-26.71-54.08-69.73 0-29.89 11.06-62.16 33.17-96.8 22.11-34.67 67.81-85.45 137.13-152.36 71.7-69.32 123.95-136.23 156.83-200.76 32.86-64.53 49.3-133.85 49.3-207.94 0-96.78-32.26-175.38-96.8-235.7-64.53-60.36-144.01-90.52-238.39-90.52-90.83 0-166.7 28.06-227.65 84.25-60.96 56.14-91.42 131.44-91.42 225.84v111.15h246.75M1470.73 397.27l-51.28 371.179-50.78-371.179zm80.55 752.4L1769.71 17.031h-250.82l-24.24 186.078h-148.06l-24.28-186.078h-250.44l218.44 1132.639h260.97M2052.18 923.141v-679.59h32.36c48.53 0 72.82 26.961 72.82 80.91V842.23c0 53.93-24.29 80.911-72.82 80.911zm-242.72-906.11V1149.67h294.48c92.78 0 165.3-24.27 217.64-72.81 52.3-48.54 78.48-120.29 78.48-215.2V311.512c0-94.93-27.25-167.75-81.71-218.43-54.48-50.723-128.1-76.05-220.87-76.05h-288.02M4107.84 17.031V1149.67h247.56V17.031h-247.56M5720.85 17.031V1149.67h247.56V17.031h-247.56M7175.52 17.031 6989.45 622.18V17.031H6779.1V1149.67h226.52l169.9-553.381v553.381h210.36V17.031h-210.36M1136.72 907.73h-134.94V16.21H758.645v891.52H623.719v243.15h513.001V907.73M223.277 381.172v-89.211c0-48.66 19.61-74.609 65.844-74.609 17.281 0 33.902 7.828 44.207 20.269 10.262 12.418 15.414 28.391 15.414 47.848 0 32.441-9.746 64.883-29.195 97.32-19.473 32.441-61.102 79.481-124.906 141.121C70.289 644.988 8.117 763.949 8.117 880.738c0 85.41 28.637 154.632 85.961 207.622 57.301 52.97 127.055 79.48 209.238 79.48 79.993 0 146.782-24.61 200.305-73.81 53.543-49.21 80.297-115.44 80.297-198.69v-84.352H356.457v73c0 43.242-14.691 69.582-56.113 69.582-32.442 0-48.942-24.172-48.942-63.101 0-27.039 10.004-56.239 30.016-87.578 20.008-31.379 61.355-77.321 124.09-137.879 64.879-62.723 112.152-123.262 141.91-181.66 29.734-58.391 44.613-121.122 44.613-188.153 0-87.59-29.199-158.699-87.593-213.289C446.039 27.3 374.121 0 288.715 0c-82.184 0-150.84 25.398-205.996 76.23C27.566 127.04 0 195.173 0 280.603v100.57h223.277M2680.04 381.172v-89.211c0-48.66 19.6-74.609 65.84-74.609 17.28 0 33.9 7.828 44.21 20.269 10.26 12.418 15.41 28.391 15.41 47.848 0 32.441-9.75 64.883-29.2 97.32-19.47 32.441-61.1 79.481-124.91 141.121-124.34 121.078-186.52 240.039-186.52 356.828 0 85.41 28.64 154.632 85.96 207.622 57.3 52.97 127.06 79.48 209.24 79.48 80 0 146.79-24.61 200.31-73.81 53.54-49.21 80.29-115.44 80.29-198.69v-84.352h-227.46v73c0 43.242-14.69 69.582-56.11 69.582-32.44 0-48.94-24.172-48.94-63.101 0-27.039 10-56.239 30.01-87.578 20.01-31.379 61.36-77.321 124.09-137.879 64.88-62.723 112.16-123.262 141.91-181.66 29.74-58.391 44.62-121.122 44.62-188.153 0-87.59-29.2-158.699-87.6-213.289C2902.8 27.3 2830.88 0 2745.47 0c-82.18 0-150.84 25.398-205.99 76.23-55.16 50.809-82.72 118.942-82.72 204.372v100.57h223.28M4643.16 381.172v-89.211c0-48.66 19.61-74.609 65.84-74.609 17.28 0 33.9 7.828 44.21 20.269 10.26 12.418 15.41 28.391 15.41 47.848 0 32.441-9.74 64.883-29.19 97.32-19.48 32.441-61.11 79.481-124.91 141.121-124.35 121.078-186.53 240.039-186.53 356.828 0 85.41 28.64 154.632 85.97 207.622 57.3 52.97 127.05 79.48 209.23 79.48 80 0 146.79-24.61 200.31-73.81 53.55-49.21 80.3-115.44 80.3-198.69v-84.352h-227.46v73c0 43.242-14.7 69.582-56.12 69.582-32.44 0-48.94-24.172-48.94-63.101 0-27.039 10.01-56.239 30.02-87.578 20.01-31.379 61.36-77.321 124.09-137.879 64.88-62.723 112.15-123.262 141.91-181.66 29.73-58.391 44.61-121.122 44.61-188.153 0-87.59-29.2-158.699-87.59-213.289C4865.92 27.3 4794 0 4708.6 0c-82.19 0-150.85 25.398-206 76.23-55.15 50.809-82.72 118.942-82.72 204.372v100.57h223.28M5283.66 381.172v-89.211c0-48.66 19.61-74.609 65.84-74.609 17.28 0 33.9 7.828 44.21 20.269 10.26 12.418 15.41 28.391 15.41 47.848 0 32.441-9.74 64.883-29.2 97.32-19.47 32.441-61.1 79.481-124.9 141.121-124.35 121.078-186.53 240.039-186.53 356.828 0 85.41 28.64 154.632 85.97 207.622 57.3 52.97 127.05 79.48 209.23 79.48 80 0 146.79-24.61 200.31-73.81 53.54-49.21 80.3-115.44 80.3-198.69v-84.352h-227.46v73c0 43.242-14.7 69.582-56.12 69.582-32.44 0-48.94-24.172-48.94-63.101 0-27.039 10.01-56.239 30.02-87.578 20.01-31.379 61.35-77.321 124.09-137.879 64.88-62.723 112.15-123.262 141.91-181.66 29.73-58.391 44.61-121.122 44.61-188.153 0-87.59-29.2-158.699-87.59-213.289C5506.42 27.3 5434.5 0 5349.1 0c-82.19 0-150.85 25.398-206 76.23-55.15 50.809-82.72 118.942-82.72 204.372v100.57h223.28M6321.68 874.371V292.262c0-43.133 23.09-64.68 60.85-64.68 37.71 0 58.18 19.957 58.18 63.078v582.121c0 43.098-20.47 66.27-58.18 66.27-37.76 0-60.85-21.571-60.85-64.68zm-238.3-585.351v582.121c0 87.32 29.11 158.189 87.3 212.639 58.22 54.41 129.92 81.66 215.08 81.66 85.14 0 155.75-26.16 211.82-78.43 56.04-52.3 84.07-122.08 84.07-209.401V295.488c0-87.316-29.08-158.207-87.3-212.629C6536.14 28.41 6464.44 1.2 6379.27 1.2c-85.14 0-155.77 26.121-211.8 78.422-56.07 52.27-84.09 122.078-84.09 209.399M3480.81 18.21 3331.89 673.86V17.891h-221.6V1150.17h269.73l180.79-491.479 180.78 491.479h253.56V17.89h-221.59V673.86L3625.25 18.211h-144.44" style="fill:currentColor;fill-opacity:1;fill-rule:nonzero;stroke:none" transform="matrix(.13333 0 0 -.13333 0 340.6)"/></svg>