<svg width="128" height="91" viewBox="0 0 128 91" fill="none" xmlns="http://www.w3.org/2000/svg">
<g clip-path="url(#clip0_994_503)">
<path d="M22.5882 0H15.0588C6.74206 0 0 6.75797 0 15.0943V75.4717C0 83.8081 6.74206 90.566 15.0588 90.566H22.5882C30.905 90.566 37.6471 83.8081 37.6471 75.4717V15.0943C37.6471 6.75797 30.905 0 22.5882 0Z" fill="#171717"/>
<path d="M67.7647 0H60.2353C51.9185 0 45.1765 6.75797 45.1765 15.0943V75.4717C45.1765 83.8081 51.9185 90.566 60.2353 90.566H67.7647C76.0814 90.566 82.8235 83.8081 82.8235 75.4717V15.0943C82.8235 6.75797 76.0814 0 67.7647 0Z" fill="#171717"/>
<path d="M90.3529 2.79525C90.3529 1.25148 91.6013 0 93.1414 0C112.393 0 128 15.6434 128 34.9406V83.8574C128 87.5626 125.004 90.566 121.307 90.566H109.176C105.678 90.566 103.928 90.566 102.474 90.2759C96.5003 89.0849 91.8306 84.4042 90.6424 78.4166C90.3529 76.9585 90.3529 75.2049 90.3529 71.6981V2.79525Z" fill="#171717" fill-opacity="0.15"/>
</g>
<defs>
<clipPath id="clip0_994_503">
<rect width="128" height="90.566" fill="white"/>
</clipPath>
</defs>
</svg>
