<svg viewBox="0 0 595.28 841.89" xmlns="http://www.w3.org/2000/svg"><path d="m97.3 405.01c1.46-7.07 2.92-14.14 4.38-21.22 6.13-1.3 11.33-1.53 15.05-1.48 3.81.06 9.79.2 16.83 2.69 3.61 1.28 5.86 2.1 8.14 4.23 3.91 3.65 4.88 8.33 5.58 11.99.51 2.66 2.06 11.29-2.35 20.86-4.55 9.88-12.52 14.46-15.14 15.83 1.11-1.32 2.76-3.66 3.57-6.93 1.34-5.46-.55-9.96-1.55-12.33-.62-1.48-3.85-9.14-11.71-12.57-4.29-1.87-8.3-1.76-16.21-1.54-2.73.08-5 .29-6.59.47z"/><path d="m56.7 359.88c3.35-2.65 11.33-8.14 21.07-7.45 2.81.2 4.88.85 5.53 1.07 8.91 2.97 12.9 10.76 13.42 11.82.93 1.88 2.2 5.16 2.14 13.84-.05 6.64-.86 12.39-4.28 27.77-3.22 14.47-4.02 16.21-4.29 22.13-.42 9.44 1.15 15.59 2.05 18.56 1.71 5.62 3.46 11.36 8.91 15.21 4.16 2.93 8.65 3.49 10.73 3.75 4.88.6 8.86-.25 11.18-.93-2.18 1.66-6.39 4.4-12.35 5.55-2.23.43-9.68 1.76-17.62-2.04-9.21-4.42-12.84-12.77-14.28-16.09-.71-1.64-2.35-5.75-3.05-15.74-.19-2.76-.83-13.48 1.64-30.57 1.25-8.67 3.01-16.9 1.52-25.49-.62-3.58-1.68-6.52-2.16-7.84-1.71-4.68-2.8-7.66-5.76-10.18-2.89-2.46-6.02-3.17-7.13-3.41-3.17-.68-5.81-.29-7.27.04z"/><path d="m74.34 447.55a83.337 83.337 0 0 1 -2.51-17.51c-.3-8.15.64-15.1 1.76-20.38-1.7-1.93-3.81-4.34-6.23-7.14-3.92-4.53-4.76-5.57-5.47-7.43-.56-1.45-1.94-5.02-.42-8.95.3-.79 1.97-4.81 6.22-6.13 1.11-.35 4.56-1.18 7.37.88 1.19.87 1.84 1.96 2.19 2.68-.34-5.7-2.02-9.81-3.23-12.2-.83-1.63-1.8-3.5-3.74-5.43-1.08-1.08-4.17-4.06-8.97-4.7-1.19-.16-3.45-.43-5.95.58-1.86.75-3.04 1.89-3.87 2.74-7.05 7.29-9.67 13.82-9.67 13.82-2.94 7.31-2.82 13.66-2.68 16.13.48 8.46 3.74 14.39 4.63 15.92 1.31 2.26 2.56 3.82 3.17 4.56 8.2 10.06 25.73 30.59 27.4 32.56zm19.66-12.52c-.08 1.57-.11 3.8.12 6.48.27 3.2.56 6.59 2.2 10.45.6 1.41 1.77 4.11 4.27 6.8 4.24 4.57 9.35 5.94 11.1 6.38 7.01 1.78 12.7-.19 14.66-.9 2.27-.82 3.79-1.73 5.59-2.83 3.5-2.13 7.83-5.34 12.74-10.83 5.24-5.86 9-10.05 11.53-17 1.15-3.16 4.08-11.55 1.51-21.89-1.95-7.85-6.29-13.08-8.05-15.18a40.411 40.411 0 0 0 -5.54-5.44c1.41 1.67 3.3 4.3 4.73 7.9.28.69 1.98 5.07 2.05 10.27.17 12.37-9 21.55-12.09 24.65-4.49 4.5-8.8 6.85-13.17 9.23-4.81 2.63-7.47 4.03-11.37 4.16-5.84.19-10.23-2.62-12.16-3.86-4.39-2.81-6.89-6.35-8.12-8.39zm151.46-8.33c0 11.7-9.28 18.47-27.08 18.47h-31.38a3.64 3.64 0 0 1 -3.64-3.64v-60.43a3.64 3.64 0 0 1 3.64-3.64h29.44c16.93 0 25.63 7.06 25.63 17.6 0 4.72-1.69 8.68-4.58 11.64-1.64 1.68-1.31 4.35.65 5.66 4.58 3.05 7.32 7.93 7.32 14.34zm-46.52-33.8v8.69a3.64 3.64 0 0 0 3.64 3.64h11.94c7.64 0 11.8-2.71 11.8-8.03s-4.16-7.93-11.8-7.93h-11.94c-2.02 0-3.64 1.62-3.64 3.63zm30.75 32.15c0-5.7-4.35-8.41-12.48-8.41h-14.65a3.64 3.64 0 0 0 -3.64 3.64v9.46a3.64 3.64 0 0 0 3.64 3.64h14.65c8.13-.01 12.48-2.52 12.48-8.33zm72.7 20.12c-1.19 0-2.31-.59-2.99-1.57l-11.97-17.29h-10.77a3.64 3.64 0 0 0 -3.64 3.64v11.59a3.64 3.64 0 0 1 -3.64 3.64h-8.4a3.64 3.64 0 0 1 -3.64-3.64v-60.44a3.64 3.64 0 0 1 3.64-3.64h25.67c18.09 0 29.4 9.38 29.4 24.57 0 8.77-3.83 15.52-10.54 19.63-1.76 1.08-2.2 3.44-1.02 5.13l8.83 12.66c1.68 2.41-.04 5.72-2.98 5.72zm-16.61-54.94h-9.13a3.64 3.64 0 0 0 -3.64 3.64v16.33a3.64 3.64 0 0 0 3.64 3.64h9.13c9.57 0 14.41-4.45 14.41-11.8.01-7.45-4.83-11.81-14.41-11.81zm46.29-12.76h8.4a3.64 3.64 0 0 1 3.64 3.64v60.43a3.64 3.64 0 0 1 -3.64 3.64h-8.4a3.64 3.64 0 0 1 -3.64-3.64v-60.44c0-2 1.63-3.63 3.64-3.63zm23.83 33.85c0-20.41 15.67-35.01 36.75-35.01 10.15 0 18.84 3.2 25.13 9.09 1.57 1.47 1.61 3.93.04 5.38l-4.81 4.44c-1.4 1.29-3.51 1.23-4.93-.04-4.11-3.65-9.01-5.53-14.65-5.53-12.67 0-21.66 8.9-21.66 21.67s8.99 21.66 21.66 21.66c5.64 0 10.55-1.88 14.65-5.59 1.42-1.28 3.55-1.35 4.95-.06l4.81 4.44c1.51 1.39 1.61 3.79.13 5.22-6.31 6.07-15.08 9.34-25.42 9.34-20.98 0-36.65-14.6-36.65-35.01zm69.43 0c0-20.41 15.67-35.01 36.75-35.01 10.15 0 18.84 3.2 25.13 9.09 1.57 1.47 1.61 3.93.04 5.38l-4.81 4.44c-1.4 1.29-3.51 1.23-4.93-.04-4.11-3.65-9.01-5.53-14.65-5.53-12.67 0-21.67 8.9-21.67 21.67s8.99 21.66 21.67 21.66c5.64 0 10.54-1.88 14.65-5.59 1.42-1.28 3.55-1.35 4.95-.06l4.81 4.44c1.51 1.39 1.61 3.79.13 5.22-6.31 6.07-15.08 9.34-25.42 9.34-20.98 0-36.65-14.6-36.65-35.01zm69.44 0c0-20.12 15.67-35.01 37.04-35.01 21.28 0 37.04 14.8 37.04 35.01s-15.77 35.01-37.04 35.01c-21.37 0-37.04-14.89-37.04-35.01zm58.23 0c0-12.86-9.09-21.67-21.18-21.67s-21.18 8.8-21.18 21.67 9.09 21.66 21.18 21.66c12.08 0 21.18-8.8 21.18-21.66z"/></svg>