<svg width="23" height="16" viewBox="0 0 23 16" fill="none" xmlns="http://www.w3.org/2000/svg">
<g clip-path="url(#clip0_948_2)">
<path d="M4 0H2.66667C1.19391 0 0 1.19391 0 2.66667V13.3333C0 14.8061 1.19391 16 2.66667 16H4C5.47276 16 6.66667 14.8061 6.66667 13.3333V2.66667C6.66667 1.19391 5.47276 0 4 0Z" fill="#171717"/>
<path d="M12 0H10.6667C9.19391 0 8 1.19391 8 2.66667V13.3333C8 14.8061 9.19391 16 10.6667 16H12C13.4728 16 14.6667 14.8061 14.6667 13.3333V2.66667C14.6667 1.19391 13.4728 0 12 0Z" fill="#171717"/>
<path d="M16 0.493828C16 0.221095 16.2211 0 16.4938 0C19.903 0 22.6667 2.76367 22.6667 6.17284V14.8148C22.6667 15.4694 22.1361 16 21.4815 16H19.3333C18.7138 16 18.404 16 18.1464 15.9487C17.0886 15.7383 16.2617 14.9114 16.0513 13.8536C16 13.596 16 13.2862 16 12.6667V0.493828Z" fill="#171717" fill-opacity="0.15"/>
</g>
<defs>
<clipPath id="clip0_948_2">
<rect width="22.6667" height="16" fill="white"/>
</clipPath>
</defs>
</svg>
