<svg xmlns="http://www.w3.org/2000/svg" fill="none" viewBox="0 0 222 78"><g clip-path="url(#a)"><path fill="currentColor" d="M213.641 61.097c2.824 0 4.54 1.83 5.125 4.62h-10.101c.585-2.827 2.264-4.62 4.976-4.62Zm8.334 5.964a8.937 8.937 0 0 0-2.226-6.225 7.595 7.595 0 0 0-6.108-2.565 7.458 7.458 0 0 0-6.22 2.776 10.61 10.61 0 0 0-2.152 6.736 10.717 10.717 0 0 0 2.152 6.761 7.47 7.47 0 0 0 6.22 2.752c3.806 0 6.107-1.507 7.824-5.13l-2.699-1.17a5.074 5.074 0 0 1-5.125 3.511c-3.172 0-4.976-2.49-5.187-6.064h13.521v-1.382Zm-26.346 6.076-4.49-14.518h-3.123l6.071 18.428h3.147l6.058-18.428h-3.135l-4.528 14.518Zm-14.79 3.91h3.06V58.619h-3.06v18.428Zm-12.688-15.651v9.873c0 3.985 2.09 6.077 5.337 6.077a5.778 5.778 0 0 0 2.997-.698l-.733-2.677a3.484 3.484 0 0 1-2.078.586c-1.567 0-2.488-1.096-2.488-3.026V61.396h4.827v-2.777h-4.827v-7.47l-3.072 1.942v5.528h-3.11v2.777h3.147Zm-8.545 9.761a5.127 5.127 0 0 1-5.038 3.4c-3.396 0-5.225-2.777-5.225-6.724s1.829-6.736 5.225-6.736a5.132 5.132 0 0 1 3.077.88 5.147 5.147 0 0 1 1.961 2.532l2.674-1.096a7.828 7.828 0 0 0-7.712-5.092 7.458 7.458 0 0 0-6.22 2.776 10.683 10.683 0 0 0-2.152 6.736 10.79 10.79 0 0 0 2.152 6.761 7.522 7.522 0 0 0 6.22 2.752 7.828 7.828 0 0 0 7.712-5.092l-2.674-1.097Zm-25.575-10.06c2.811 0 4.528 1.83 5.112 4.62H129.03c.585-2.827 2.264-4.62 4.976-4.62h.025Zm8.309 5.964a8.933 8.933 0 0 0-2.226-6.225 7.597 7.597 0 0 0-6.108-2.565 7.372 7.372 0 0 0-6.22 2.776 10.604 10.604 0 0 0-2.164 6.736 10.73 10.73 0 0 0 2.189 6.811 7.47 7.47 0 0 0 6.22 2.752c3.806 0 6.107-1.507 7.824-5.13l-2.712-1.17a5.053 5.053 0 0 1-5.112 3.51c-3.185 0-4.976-2.49-5.187-6.063h13.521l-.025-1.432Zm-24.082 9.96h3.073V51.125h-3.098l.025 25.898Zm-8.769 0h3.072V51.125h-3.072v25.898ZM92.074 63.09a4.978 4.978 0 0 1 4.204-2.017 4.848 4.848 0 0 1 4.167 2.017 7.47 7.47 0 0 1 1.53 4.72 7.66 7.66 0 0 1-1.53 4.755 4.898 4.898 0 0 1-4.167 1.968 4.971 4.971 0 0 1-4.204-1.968 7.886 7.886 0 0 1-1.505-4.756 7.687 7.687 0 0 1 1.505-4.719Zm-2.227 11.443a8.11 8.11 0 0 0 6.431 2.789 8.004 8.004 0 0 0 6.394-2.79 10.454 10.454 0 0 0 0-13.422 8.067 8.067 0 0 0-6.394-2.813 8.165 8.165 0 0 0-6.43 2.813 10.54 10.54 0 0 0 0 13.423Zm-8.707-5.877c-1.21 3.719-3.516 5.582-6.916 5.59a7.606 7.606 0 0 1-5.946-2.602 13.233 13.233 0 0 1 0-14.842 7.614 7.614 0 0 1 5.946-2.602c3.408 0 5.714 1.868 6.916 5.603l3.097-.921a10.21 10.21 0 0 0-3.507-5.59 9.945 9.945 0 0 0-6.506-2.167 11.099 11.099 0 0 0-8.185 3.449c-2.227 2.303-3.359 5.516-3.359 9.65 0 4.133 1.132 7.358 3.359 9.661a11.095 11.095 0 0 0 8.185 3.437 9.945 9.945 0 0 0 6.443-2.105 10.31 10.31 0 0 0 3.508-5.627l-3.035-.934ZM162.23 25.96a5.291 5.291 0 0 0-2.487-.547 6.453 6.453 0 0 0-5.411 3.436V25.7h-3.073v18.39h3.073v-6.947a11.895 11.895 0 0 1 1.542-6.575 4.352 4.352 0 0 1 3.607-2.378 4.85 4.85 0 0 1 2.165.51l.584-2.739Zm-15.76 6.4c0-4.681-2.811-6.947-7.09-6.947-3.471 0-6.07 1.93-6.543 4.98l2.699.623a3.736 3.736 0 0 1 3.844-2.89c2.662 0 4.018 1.246 4.018 3.736v.81H140.4c-5.15 0-8.334 2.116-8.334 6.038s2.375 5.59 5.709 5.59a6.576 6.576 0 0 0 5.71-2.701l.497 2.49h2.488V32.36Zm-11.195 6.475c0-2.092 1.791-3.262 4.901-3.262h3.284v.435a5.477 5.477 0 0 1-1.655 4.346 5.293 5.293 0 0 1-3.619 1.245 2.671 2.671 0 0 1-2.848-1.655 2.684 2.684 0 0 1-.187-1.159l.124.05Zm-10.872 5.254h3.073V18.241h-3.073v25.848Zm-8.707 0h3.072V18.241h-3.072v25.848Zm-12.862-15.937c2.823 0 4.54 1.83 5.125 4.607H97.833c.585-2.814 2.264-4.607 4.976-4.607h.025Zm8.309 5.964a8.959 8.959 0 0 0-2.226-6.226 7.605 7.605 0 0 0-6.108-2.49 7.344 7.344 0 0 0-6.22 2.777 10.566 10.566 0 0 0-2.151 6.723 10.752 10.752 0 0 0 2.151 6.774 7.464 7.464 0 0 0 6.22 2.739c3.806 0 6.108-1.494 7.824-5.117l-2.724-1.158a5.07 5.07 0 0 1-5.137 3.461c-3.172 0-4.976-2.49-5.188-6.076h13.522l.037-1.407Zm-27.664-5.678v9.874c0 3.997 2.09 6.076 5.336 6.076a5.78 5.78 0 0 0 2.998-.697l-.722-2.665a3.643 3.643 0 0 1-2.09.585c-1.567 0-2.487-1.095-2.487-3.038V28.476h4.826v-2.777h-4.826v-7.47l-3.073 1.93v5.527H80.27v2.777l3.21-.025ZM76.724 22.3a6.746 6.746 0 0 0-6.655-4.097 6.001 6.001 0 0 0-4.453 1.905 6.227 6.227 0 0 0-1.866 4.645 5.593 5.593 0 0 0 1.866 4.494 15.396 15.396 0 0 0 4.317 2.628c3.06 1.469 4.813 2.751 4.813 4.98a4.66 4.66 0 0 1-.982 3.038 4.29 4.29 0 0 1-3.47 1.457c-3.036 0-4.491-2.042-5.486-5.516l-2.774 1.681a8.855 8.855 0 0 0 2.886 4.98 8.031 8.031 0 0 0 5.373 1.943 7.46 7.46 0 0 0 7.223-4.67 7.477 7.477 0 0 0 .54-2.988 6.33 6.33 0 0 0-2.737-5.341 17.482 17.482 0 0 0-3.371-2.005l-1.966-1.033a16.074 16.074 0 0 1-1.468-.946 3.385 3.385 0 0 1-1.492-2.964 3.112 3.112 0 0 1 3.06-3.187c1.729 0 2.898.622 4.067 2.714l2.575-1.718Z"/><path fill="#E55F0E" d="M86.053 6.973A3.65 3.65 0 0 0 82.323 3.1a4.14 4.14 0 0 0-3.69 4.122 4.148 4.148 0 0 0 3.69 4.12 3.493 3.493 0 0 0 3.495-2.253l-1.405-.548a2.315 2.315 0 0 1-2.09 1.345 1.989 1.989 0 0 1-1.978-2.204h5.647l.063-.71Zm-3.731-2.416A1.865 1.865 0 0 1 84.25 6.3H80.38a1.943 1.943 0 0 1 1.94-1.743Zm-12.116 6.661h1.642V7.844a3.8 3.8 0 0 1 .697-2.378A1.916 1.916 0 0 1 74 4.557c.821 0 1.244.324 1.244 1.457v5.204h1.654V5.591a2.181 2.181 0 0 0-2.363-2.49 3.12 3.12 0 0 0-2.687 1.493V0h-1.642v11.218Zm-6.319-9.462v9.462h1.73V1.756h3.096V.125H60.79v1.63h3.097Z"/><path fill="#1D1D1B" d="M26.719 48.023a2.487 2.487 0 0 0 2.44-2.976 2.491 2.491 0 0 0-1.955-1.956 2.485 2.485 0 0 0-2.553 1.059 2.492 2.492 0 0 0 2.068 3.873Z"/><path fill="#E55F0E" d="M37.367 42.16a3.008 3.008 0 0 0 2.813-1.817 3.016 3.016 0 0 0-2.135-4.143 3.008 3.008 0 0 0-3.639 2.909 2.99 2.99 0 0 0 2.961 3M15.089 42.16a3.008 3.008 0 0 0 2.812-1.817 3.016 3.016 0 0 0-2.134-4.143 3.008 3.008 0 0 0-3.639 2.909 2.99 2.99 0 0 0 2.96 3M37.367 55.295a2.997 2.997 0 0 0 2.982-3.563 3 3 0 0 0-4.083-2.213 2.999 2.999 0 0 0-1.86 2.775 2.99 2.99 0 0 0 2.961 3.001Z"/><path fill="#1D1D1B" d="M26.222 61.359a3.008 3.008 0 0 0 2.86-1.784 3.015 3.015 0 0 0-2.126-4.175 3.007 3.007 0 0 0-3.123 1.27 3.016 3.016 0 0 0-.51 1.688 2.979 2.979 0 0 0 1.821 2.768c.361.152.748.231 1.14.233M26.222 36.145a3.008 3.008 0 0 0 2.86-1.783 3.016 3.016 0 0 0-2.126-4.176 3.008 3.008 0 0 0-3.123 1.27 3.016 3.016 0 0 0-.51 1.689 2.98 2.98 0 0 0 1.821 2.768c.361.152.748.23 1.14.232"/><path fill="#E55F0E" d="M26.023 22.848a3.505 3.505 0 0 0 3.277-2.136 3.515 3.515 0 0 0-2.532-4.817 3.505 3.505 0 0 0-3.615 1.495 3.514 3.514 0 0 0-.588 1.959 3.477 3.477 0 0 0 2.127 3.228c.422.177.874.27 1.33.27ZM48.997 36.146a3.506 3.506 0 0 0 3.278-2.136 3.514 3.514 0 0 0-2.533-4.817 3.504 3.504 0 0 0-3.614 1.495 3.514 3.514 0 0 0-.589 1.959 3.488 3.488 0 0 0 3.458 3.499Z"/><path fill="#1D1D1B" d="M48.998 62.367a3.506 3.506 0 0 0 3.276-2.132 3.514 3.514 0 0 0-2.524-4.819 3.505 3.505 0 0 0-4.21 3.44 3.489 3.489 0 0 0 2.127 3.236 3.48 3.48 0 0 0 1.33.275Z"/><path fill="#E55F0E" d="M26.72 75.702a3.505 3.505 0 0 0 3.319-2.088 3.514 3.514 0 0 0-2.481-4.856 3.505 3.505 0 0 0-3.635 1.471c-.39.58-.6 1.263-.6 1.962a3.478 3.478 0 0 0 2.125 3.24c.422.177.875.27 1.333.271M3.42 61.869a3.505 3.505 0 0 0 3.286-2.124A3.514 3.514 0 0 0 4.19 54.92a3.504 3.504 0 0 0-3.62 1.482 3.513 3.513 0 0 0-.596 1.957 3.488 3.488 0 0 0 3.446 3.511Z"/><path fill="#1D1D1B" d="M3.42 36.145a3.506 3.506 0 0 0 3.287-2.126 3.515 3.515 0 0 0-2.524-4.825 3.504 3.504 0 0 0-3.618 1.492 3.513 3.513 0 0 0-.59 1.96 3.477 3.477 0 0 0 2.12 3.225c.42.178.87.271 1.326.274Z"/><path fill="#E55F0E" d="M15.089 55.295a2.995 2.995 0 0 0 2.8-1.838 3.004 3.004 0 0 0-2.195-4.109 2.995 2.995 0 0 0-3.082 1.312 3.003 3.003 0 0 0-.484 1.684 2.99 2.99 0 0 0 2.96 2.951Z"/><path fill="#1D1D1B" d="M180.205 53.776a2.303 2.303 0 0 0 2.301 2.303 2.299 2.299 0 0 0 2.301-2.303 2.299 2.299 0 0 0-1.42-2.128 2.3 2.3 0 0 0-3.182 2.128Z"/></g><defs><clipPath id="a"><path fill="#fff" d="M0 0h222v77.346H0z"/></clipPath></defs></svg>