<svg xmlns="http://www.w3.org/2000/svg" width="1587.4" height="1122.52" viewBox="0 0 1587.4 1122.52">
<defs>
<clipPath id="a" clipPathUnits="userSpaceOnUse">
  <path d="M-244.467 537.386h1190.55v-841.89h-1190.55Z"/>
</clipPath>
<clipPath id="b" clipPathUnits="userSpaceOnUse">
  <path d="M-921.087 576.692h1190.55v-841.89h-1190.55Z"/>
</clipPath>
</defs>
  <path d="m0 0-90.196-241.839L-180.391 0h-78.874l129.633-347.579h78.873L78.873 0Z" fill="currentColor" transform="matrix(1.33333 0 0 -1.33333 927.2 390.22)"/>
  <path d="m0 0-57.576-41.776c22.365-33.143 67.272-68.012 127.565-68.012 67.771 0 120.755 41.549 120.755 106.169 0 42.236-24.601 74.445-75.207 97.642-6.97 3.195-35.697 15.967-41.207 18.294-26.63 11.248-39.576 23.873-39.576 39.006 0 15.701 12.235 30.87 37.278 30.87 17.523 0 33.58-8.242 48.979-25.164l54.734 39.714c-21.837 33.55-62.421 54.389-105.952 54.389-57.597 0-108.22-37.108-108.22-99.491 0-43.388 24.648-76.98 75.092-98.545 14.766-6.312 25.118-10.704 36.759-15.674 16.64-7.104 43.535-18.314 43.535-42.1 0-23.769-23.535-36.06-48.97-36.06C45.044-40.738 20.862-26.227 0 0" clip-path="url(#a)" fill="currentColor" transform="matrix(1.33333 0 0 -1.33333 325.956 716.515)"/>
  <path d="M0 0c-16.824 0-30.955 10.159-38.458 24.572-5.691 10.932-5.913 28.319-5.913 43.107v144.346h80.385l26.854 72.002H-44.371v99.253h-73.598V56.454c.084-15.147.875-29.004 6.611-47.188C-95.349-37.137-51.94-70.482 0-70.482c29.701 0 60.153 11.413 82.531 32.377L36.434 14.579C26.707 6.069 13.266 0 0 0" clip-path="url(#b)" fill="currentColor" transform="matrix(1.33333 0 0 -1.33333 1228.116 768.922)"/>
</svg>